# xmcd CD database file
#
# Track frame offsets:
#	150
#	31999
#	47538
#	76334
#	103838
#
# Disc length: 2046 seconds
#
# Revision: 1
# Processed by: cddbd v1.5.1PL2 Copyright (c) Steve Scherf et al.
# Submitted via: CDex 1.60beta1-cs1
#
DISCID=3307fc05
DTITLE=Grant Green - Goin' West
DYEAR=1962
DGENRE=Jazz
TTITLE0=On The Top Of Old Smoky
TTITLE1=I Can't Stop Loving You
TTITLE2=Wagon Wheels
TTITLE3=Red River Valley
TTITLE4=Tumbling Tumbleweeds
EXTD=YEAR: 1962
EXTT0=
EXTT1=
EXTT2=
EXTT3=
EXTT4=
PLAYORDER=
